<svg xmlns="http://www.w3.org/2000/svg" width="16" height="20" viewBox="0 0 16 20" fill="none">
  <g clip-path="url(#clip0_2008_8707)">
    <path d="M15.1265 0.850098V19.1168H0.875V0.850098H15.1265Z" fill="#1B2446"/>
    <path d="M14.2509 1.66675H1.71484V18.3334H14.2509V1.66675ZM10.0282 10.3001C9.8633 11.2334 9.07155 11.9667 8.11484 11.9667C7.15814 11.9667 6.3334 11.2334 6.20144 10.3001H10.0282ZM10.3252 2.33341V4.36675H5.67361V2.33341H10.3252ZM6.20144 9.66675C6.36639 8.73341 7.15814 8.00008 8.11484 8.00008C9.07155 8.00008 9.89629 8.73341 10.0282 9.66675H6.20144ZM10.5891 9.66675C10.4241 8.40008 9.40144 7.43341 8.11484 7.43341C6.82825 7.43341 5.77258 8.40008 5.64062 9.66675H2.40763V2.33341H5.0468V5.00008H10.952V2.33341H13.6241V9.66675H10.5891ZM2.40763 10.3001H5.64062C5.80557 11.5667 6.82825 12.5334 8.11484 12.5334C9.40144 12.5334 10.4571 11.5667 10.5891 10.3001H13.6241V17.6334H10.952V15.0001H5.0468V17.6334H2.40763V10.3001ZM10.3252 17.6667H5.67361V15.6667H10.3252V17.6667Z" fill="white"/>
  </g>
  <defs>
    <clipPath id="clip0_2008_8707">
      <rect width="16" height="20" fill="white"/>
    </clipPath>
  </defs>
</svg>