<svg xmlns="http://www.w3.org/2000/svg" width="16" height="16" viewBox="0 0 16 16" fill="none">
  <g clip-path="url(#clip0_2008_8722)">
    <path d="M16 8.00001C16 9.58226 15.5308 11.129 14.6518 12.4446C13.7727 13.7602 12.5233 14.7855 11.0615 15.391C9.59967 15.9965 7.99113 16.155 6.43928 15.8463C4.88743 15.5376 3.46197 14.7757 2.34315 13.6569C1.22433 12.538 0.462403 11.1126 0.153721 9.56073C-0.15496 8.00888 0.00346629 6.40035 0.608967 4.93854C1.21447 3.47673 2.23985 2.2273 3.55544 1.34825C4.87104 0.469199 6.41775 7.13078e-06 8.00001 7.13078e-06C9.05098 -0.00139697 10.0919 0.204571 11.0631 0.606111C12.0344 1.00765 12.9168 1.59687 13.66 2.34002C14.4031 3.08317 14.9924 3.96564 15.3939 4.93688C15.7954 5.90812 16.0014 6.94904 16 8.00001Z" fill="#26511B"/>
    <path d="M8.00177 14.8534C11.7868 14.8534 14.8551 11.7851 14.8551 8.00006C14.8551 4.21507 11.7868 1.14673 8.00177 1.14673C4.21678 1.14673 1.14844 4.21507 1.14844 8.00006C1.14844 11.7851 4.21678 14.8534 8.00177 14.8534Z" fill="white"/>
    <path d="M6.18698 7.44008L6.88031 9.57342H9.12032L9.81365 7.44008L8.00032 6.13342L6.18698 7.44008ZM8.00032 2.32008C6.87692 2.32008 5.77875 2.65321 4.84468 3.27734C3.9106 3.90146 3.18259 4.78856 2.75268 5.82644C2.32277 6.86433 2.21029 8.00638 2.42945 9.1082C2.64862 10.21 3.18959 11.2221 3.98395 12.0165C4.77831 12.8108 5.79039 13.3518 6.8922 13.5709C7.99401 13.7901 9.13607 13.6776 10.174 13.2477C11.2118 12.8178 12.0989 12.0898 12.7231 11.1557C13.3472 10.2217 13.6803 9.12348 13.6803 8.00008C13.682 7.2537 13.5362 6.51434 13.2514 5.82445C12.9665 5.13455 12.5482 4.50773 12.0204 3.97995C11.4927 3.45218 10.8658 3.03386 10.176 2.74901C9.48606 2.46416 8.7467 2.3184 8.00032 2.32008ZM9.97365 10.7201L9.33365 12.7468C8.89881 12.8647 8.45084 12.9274 8.00032 12.9334C7.54994 12.9256 7.1022 12.8629 6.66698 12.7468L6.00031 10.7201H3.86698C3.37196 9.96374 3.08668 9.0895 3.04031 8.18675L4.74698 6.93342L4.08032 4.90675C4.64182 4.19967 5.39005 3.6639 6.24031 3.36008L7.94698 4.61342L9.65365 3.36008C10.4988 3.67356 11.2446 4.2076 11.8136 4.90675L11.2003 6.96008L12.907 8.21342C12.8816 9.11993 12.5945 9.99975 12.0803 10.7468H9.97365V10.7201Z" fill="#26511B"/>
  </g>
  <defs>
    <clipPath id="clip0_2008_8722">
      <rect width="16" height="16" fill="white"/>
    </clipPath>
  </defs>
</svg>