<svg width="14" height="14" viewBox="0 0 14 14" fill="none" xmlns="http://www.w3.org/2000/svg">
<path d="M1.75 3.5H2.91667H12.25" stroke="white" stroke-linecap="round" stroke-linejoin="round"/>
<path d="M11.0807 3.49984V11.6665C11.0807 11.9759 10.9578 12.2727 10.739 12.4915C10.5202 12.7103 10.2235 12.8332 9.91406 12.8332H4.08073C3.77131 12.8332 3.47456 12.7103 3.25577 12.4915C3.03698 12.2727 2.91406 11.9759 2.91406 11.6665V3.49984M4.66406 3.49984V2.33317C4.66406 2.02375 4.78698 1.72701 5.00577 1.50821C5.22456 1.28942 5.52131 1.1665 5.83073 1.1665H8.16406C8.47348 1.1665 8.77023 1.28942 8.98902 1.50821C9.20781 1.72701 9.33073 2.02375 9.33073 2.33317V3.49984" stroke="white" stroke-linecap="round" stroke-linejoin="round"/>
<path d="M5.83594 6.4165V9.9165" stroke="white" stroke-linecap="round" stroke-linejoin="round"/>
<path d="M8.16406 6.4165V9.9165" stroke="white" stroke-linecap="round" stroke-linejoin="round"/>
</svg>
