<svg xmlns="http://www.w3.org/2000/svg" width="16" height="16" viewBox="0 0 16 16" fill="none">
  <g clip-path="url(#clip0_2008_8681)">
    <path d="M2.50233 0.5C2.50233 0.367392 2.55501 0.240215 2.64878 0.146447C2.74255 0.0526784 2.86972 0 3.00233 0L13.0023 0C13.1349 0 13.2621 0.0526784 13.3559 0.146447C13.4497 0.240215 13.5023 0.367392 13.5023 0.5C13.5023 1.038 13.4903 1.55 13.4683 2.036C13.8635 2.10143 14.2415 2.24532 14.5801 2.45918C14.9188 2.67304 15.2112 2.95255 15.44 3.28121C15.6689 3.60987 15.8297 3.98104 15.9129 4.37283C15.996 4.76461 15.9999 5.16908 15.9242 5.56239C15.8486 5.95569 15.6949 6.32986 15.4724 6.66284C15.2498 6.99581 14.9628 7.28085 14.6283 7.50114C14.2938 7.72144 13.9186 7.87252 13.5248 7.94549C13.131 8.01846 12.7265 8.01183 12.3353 7.926C11.5453 9.791 10.4573 10.703 9.50233 10.937V13.11L10.9273 13.466C11.1213 13.514 11.3043 13.601 11.4643 13.721L13.3023 15.1C13.3863 15.163 13.4483 15.2507 13.4796 15.3509C13.5109 15.4511 13.5099 15.5586 13.4767 15.6581C13.4435 15.7577 13.3798 15.8443 13.2947 15.9056C13.2096 15.967 13.1073 16 13.0023 16H3.00233C2.89739 16 2.79511 15.967 2.70998 15.9056C2.62484 15.8443 2.56118 15.7577 2.52799 15.6581C2.49481 15.5586 2.49379 15.4511 2.52508 15.3509C2.55637 15.2507 2.61838 15.163 2.70233 15.1L4.54033 13.721C4.70033 13.601 4.88333 13.514 5.07733 13.466L6.50233 13.11V10.937C5.54733 10.703 4.45933 9.791 3.66933 7.925C3.27792 8.01129 2.87318 8.01828 2.47902 7.94554C2.08487 7.87281 1.70928 7.72183 1.37445 7.50151C1.03961 7.2812 0.752321 6.99602 0.529539 6.66283C0.306757 6.32963 0.153002 5.95517 0.077354 5.56156C0.00170607 5.16795 0.00569929 4.76318 0.0890978 4.37114C0.172496 3.97909 0.333609 3.60774 0.562921 3.279C0.792233 2.95027 1.08509 2.67082 1.42421 2.45715C1.76332 2.24349 2.14182 2.09995 2.53733 2.035C2.51379 1.52367 2.50212 1.01187 2.50233 0.5ZM2.60133 3.04C2.07952 3.13548 1.61701 3.43433 1.31554 3.87083C1.01408 4.30732 0.898355 4.84569 0.993833 5.3675C1.08931 5.88931 1.38817 6.35183 1.82466 6.65329C2.26115 6.95476 2.79952 7.07048 3.32133 6.975C2.98833 5.925 2.73333 4.629 2.60133 3.04ZM12.6843 6.975C13.2061 7.07048 13.7445 6.95476 14.181 6.65329C14.6175 6.35183 14.9164 5.88931 15.0118 5.3675C15.1073 4.84569 14.9916 4.30732 14.6901 3.87083C14.3887 3.43433 13.9261 3.13548 13.4043 3.04C13.2713 4.63 13.0163 5.925 12.6843 6.975ZM3.50633 1C3.51333 1.517 3.53233 2.006 3.56233 2.469C3.69233 4.497 4.01933 6.015 4.43233 7.136C5.29633 9.48 6.48633 10 7.00233 10C7.13494 10 7.26212 10.0527 7.35589 10.1464C7.44965 10.2402 7.50233 10.3674 7.50233 10.5V13.11C7.50233 13.3329 7.42783 13.5495 7.29068 13.7252C7.15352 13.901 6.96158 14.0258 6.74533 14.08L5.31933 14.436C5.25459 14.4521 5.19373 14.481 5.14033 14.521L4.50233 15H11.5023L10.8643 14.521C10.8106 14.4809 10.7494 14.452 10.6843 14.436L9.25933 14.08C9.04309 14.0258 8.85114 13.901 8.71399 13.7252C8.57683 13.5495 8.50234 13.3329 8.50233 13.11V10.5C8.50233 10.3674 8.55501 10.2402 8.64878 10.1464C8.74255 10.0527 8.86972 10 9.00233 10C9.51833 10 10.7083 9.48 11.5723 7.136C11.9853 6.016 12.3123 4.496 12.4423 2.469C12.4723 2.006 12.4913 1.517 12.4983 1H3.50633Z" fill="black"/>
  </g>
  <defs>
    <clipPath id="clip0_2008_8681">
      <rect width="16" height="16" fill="white"/>
    </clipPath>
  </defs>
</svg>